<?xml version="1.0" encoding="UTF-8"?>
<!DOCTYPE svg PUBLIC "-//W3C//DTD SVG 1.1//EN" "http://www.w3.org/Graphics/SVG/1.1/DTD/svg11.dtd">
<!-- Creator: CorelDRAW 2019 (64-Bit) -->
<svg xmlns="http://www.w3.org/2000/svg" xml:space="preserve" width="100mm" height="20.9749mm" version="1.1" style="shape-rendering:geometricPrecision; text-rendering:geometricPrecision; image-rendering:optimizeQuality; fill-rule:evenodd; clip-rule:evenodd"
viewBox="0 0 1052.63 220.79"
 xmlns:xlink="http://www.w3.org/1999/xlink">
 <defs>
  <style type="text/css">
   <![CDATA[
    .fil1 {fill:#FEFEFE}
    .fil0 {fill:#FEFEFE;fill-rule:nonzero}
   ]]>
  </style>
 </defs>
 <g id="Слой_x0020_1">
  <metadata id="CorelCorpID_0Corel-Layer"/>
  <g id="_1838622605520">
   <path class="fil0" d="M306.24 133.97l4 0c1.51,0 2.82,-0.31 3.94,-0.91 1.13,-0.6 2,-1.37 2.65,-2.29 0.65,-0.91 1.21,-2 1.66,-3.25 0.45,-1.27 0.79,-2.48 1.01,-3.68 0.21,-1.18 0.43,-2.39 0.61,-3.63 0.07,-0.55 0.12,-0.92 0.15,-1.16 1.2,-7.97 1.93,-18.99 2.21,-33.09l-11.43 0 2.65 -11.39 53.12 0 0 60.05 7.49 0 0 11.39 -21.25 0 0 -60.05 -16.83 0c-0.34,8.35 -0.77,15.96 -1.27,22.8 -0.14,2 -0.29,3.78 -0.45,5.34 -0.15,1.56 -0.38,3.52 -0.65,5.89 -0.29,2.38 -0.67,4.48 -1.09,6.3 -0.44,1.83 -0.98,3.8 -1.59,5.92 -0.62,2.12 -1.35,3.95 -2.21,5.49 -0.87,1.54 -1.87,2.96 -2.96,4.28 -1.11,1.32 -2.39,2.33 -3.88,3.01 -1.47,0.68 -3.08,1.03 -4.82,1.03l-9.01 0 -2.05 -12.04zm90.25 -48l2.67 -11.39 21.85 0 0 49.46 28.83 -49.46 12.64 0 0 60.05 9.65 0 0 11.39 -22.58 0 0 -48.45 -29.17 48.45 -12.3 0 0 -60.05 -11.58 0zm101.08 0l2.72 -11.39 54.98 0 0 25.15 -12.93 0 0 -13.75 -18.58 0 0 48.65 11.49 0 0 11.39 -36.75 0 0 -11.39 11.5 0 0 -48.65 -12.44 0zm79.34 24.86c0,-6.18 0.75,-11.67 2.27,-16.46 1.52,-4.81 3.68,-8.74 6.48,-11.8 2.81,-3.08 6.14,-5.41 9.99,-6.96 3.83,-1.57 8.14,-2.36 12.9,-2.36 4.69,0 8.95,0.77 12.78,2.33 3.85,1.56 7.15,3.83 9.96,6.84 2.79,3.01 4.96,6.84 6.52,11.53 1.56,4.67 2.36,10.02 2.43,16.03 0,6.18 -0.75,11.67 -2.27,16.46 -1.52,4.81 -3.7,8.74 -6.5,11.8 -2.81,3.08 -6.14,5.41 -9.99,6.96 -3.85,1.57 -8.16,2.36 -12.91,2.36 -4.69,0 -8.95,-0.77 -12.78,-2.33 -3.83,-1.56 -7.15,-3.83 -9.94,-6.84 -2.79,-3.01 -4.94,-6.84 -6.5,-11.53 -1.56,-4.67 -2.36,-10.02 -2.43,-16.03zm13.75 0c0.03,4.34 0.51,8.13 1.45,11.34 0.94,3.22 2.22,5.78 3.87,7.66 1.64,1.88 3.51,3.29 5.61,4.17 2.09,0.89 4.41,1.33 6.96,1.33 2.57,0 4.91,-0.46 7.03,-1.39 2.1,-0.92 3.99,-2.36 5.65,-4.29 1.66,-1.95 2.94,-4.58 3.87,-7.92 0.92,-3.34 1.39,-7.25 1.39,-11.77 -0.03,-4.34 -0.51,-8.13 -1.45,-11.34 -0.94,-3.22 -2.24,-5.78 -3.9,-7.67 -1.66,-1.88 -3.52,-3.28 -5.63,-4.17 -2.09,-0.89 -4.41,-1.33 -6.94,-1.33 -2.58,0 -4.93,0.46 -7.05,1.39 -2.1,0.92 -3.99,2.36 -5.65,4.29 -1.66,1.95 -2.94,4.58 -3.85,7.92 -0.91,3.34 -1.35,7.25 -1.35,11.77zm79.59 35.21l0 -71.45 23.76 0c15.98,0 23.97,5.87 23.97,17.62 0,3.61 -0.98,6.89 -2.94,9.87 -1.97,2.98 -4.81,5.13 -8.5,6.47 4.4,1.11 7.73,3.13 9.99,6.04 2.27,2.92 3.4,6.38 3.4,10.33 0,5.1 -1.04,9.2 -3.15,12.3 -2.09,3.1 -5.66,5.44 -10.69,7.03 -5.03,1.59 -11.84,2.4 -20.43,2.4 -4.69,0 -9.82,-0.21 -15.41,-0.6zm13.75 -10.79c1.57,0.14 4.35,0.21 8.33,0.21 9.22,0 13.84,-3.46 13.84,-10.33 0,-1.9 -0.32,-3.51 -0.96,-4.82 -0.63,-1.3 -1.54,-2.31 -2.7,-2.99 -1.16,-0.67 -2.43,-1.16 -3.76,-1.44 -1.33,-0.29 -2.86,-0.43 -4.57,-0.43l-10.18 0 0 19.81zm0 -29.87l6.36 0c4.48,0 7.92,-0.79 10.3,-2.34 2.38,-1.56 3.56,-4.23 3.56,-7.99 0,-1.87 -0.33,-3.42 -0.96,-4.71 -0.63,-1.28 -1.54,-2.26 -2.74,-2.89 -1.18,-0.65 -2.43,-1.11 -3.76,-1.39 -1.32,-0.26 -2.82,-0.39 -4.53,-0.39l-8.23 0 0 19.71zm60.89 5.77c0,-4.43 0.39,-8.47 1.2,-12.15 0.79,-3.66 1.85,-6.77 3.2,-9.34 1.33,-2.57 2.98,-4.82 4.91,-6.81 1.93,-1.97 3.93,-3.56 5.97,-4.76 2.05,-1.18 4.31,-2.16 6.76,-2.91 2.45,-0.75 4.76,-1.27 6.95,-1.54 2.19,-0.26 4.45,-0.39 6.79,-0.39 6.69,0 12.79,1.01 18.32,3.03l0 24.48 -12.93 0 0 -14.69c-2.17,-0.39 -4.35,-0.6 -6.48,-0.6 -6.5,0 -11.62,2.1 -15.35,6.29 -3.71,4.19 -5.58,10.66 -5.58,19.38 0,4.24 0.53,7.95 1.59,11.12 1.04,3.17 2.55,5.68 4.5,7.55 1.93,1.88 4.17,3.27 6.69,4.17 2.51,0.91 5.32,1.37 8.43,1.37 6.36,0 12.66,-1.28 18.9,-3.85l0 11.85c-2.31,1.44 -5.37,2.5 -9.17,3.18 -3.81,0.69 -7.73,1.03 -11.79,1.03 -3.61,0 -6.96,-0.38 -10.06,-1.13 -3.11,-0.75 -6.09,-2.02 -8.95,-3.8 -2.86,-1.78 -5.3,-4.04 -7.32,-6.76 -2,-2.74 -3.61,-6.21 -4.81,-10.42 -1.18,-4.23 -1.78,-9 -1.78,-14.32zm78.45 -25.16l2.67 -11.39 22.67 0 0 29.97 5.32 0 18.68 -29.97 14.39 0 -20.75 33.17c1.37,1.28 2.62,2.82 3.71,4.65l8.93 14.66c1.49,2.36 2.86,4.09 4.07,5.15 1.23,1.06 2.77,1.59 4.64,1.59l2.36 0 0 12.21 -2.46 0c-4.33,0 -7.87,-0.65 -10.59,-1.93 -2.72,-1.28 -5.23,-3.69 -7.54,-7.24l-9.37 -15.28c-1.01,-1.68 -2.03,-2.93 -3.11,-3.76 -1.06,-0.84 -2.45,-1.25 -4.16,-1.25l-4.11 0 0 29.46 -13.75 0 0 -60.05 -11.58 0zm85.68 24.86c0,-6.18 0.75,-11.67 2.27,-16.46 1.52,-4.81 3.68,-8.74 6.48,-11.8 2.81,-3.08 6.14,-5.41 9.99,-6.96 3.83,-1.57 8.14,-2.36 12.9,-2.36 4.69,0 8.95,0.77 12.78,2.33 3.85,1.56 7.15,3.83 9.96,6.84 2.79,3.01 4.96,6.84 6.52,11.53 1.56,4.67 2.36,10.02 2.43,16.03 0,6.18 -0.75,11.67 -2.27,16.46 -1.52,4.81 -3.7,8.74 -6.5,11.8 -2.8,3.08 -6.14,5.41 -9.99,6.96 -3.85,1.57 -8.16,2.36 -12.91,2.36 -4.69,0 -8.95,-0.77 -12.78,-2.33 -3.83,-1.56 -7.15,-3.83 -9.94,-6.84 -2.79,-3.01 -4.94,-6.84 -6.5,-11.53 -1.56,-4.67 -2.36,-10.02 -2.43,-16.03zm13.75 0c0.03,4.34 0.51,8.13 1.45,11.34 0.94,3.22 2.22,5.78 3.87,7.66 1.64,1.88 3.51,3.29 5.61,4.17 2.09,0.89 4.41,1.33 6.96,1.33 2.57,0 4.91,-0.46 7.03,-1.39 2.1,-0.92 3.99,-2.36 5.65,-4.29 1.66,-1.95 2.94,-4.58 3.87,-7.92 0.92,-3.34 1.39,-7.25 1.39,-11.77 -0.03,-4.34 -0.51,-8.13 -1.45,-11.34 -0.94,-3.22 -2.24,-5.78 -3.9,-7.67 -1.66,-1.88 -3.52,-3.28 -5.63,-4.17 -2.09,-0.89 -4.41,-1.33 -6.94,-1.33 -2.58,0 -4.93,0.46 -7.05,1.39 -2.1,0.92 -3.99,2.36 -5.65,4.29 -1.66,1.95 -2.94,4.58 -3.85,7.92 -0.91,3.34 -1.35,7.25 -1.35,11.77zm73.79 -24.86l2.72 -11.39 53.34 0 0 11.39 -29.87 0 0 17.86 23.71 0 0 11.39 -23.71 0 0 19.19 29.87 0 0 11.6 -55.22 0 0 -11.6 11.6 0 0 -48.45 -12.44 0z"/>
   <polygon class="fil1" points="127.47,0 191.21,110.39 254.94,220.79 167.43,220.79 127.47,151.59 87.52,220.79 -0,220.79 63.74,110.39 "/>
   <path class="fil0" d="M306.24 215.07l1.7 0c0.64,0 1.2,-0.13 1.67,-0.39 0.48,-0.25 0.85,-0.58 1.13,-0.97 0.28,-0.39 0.52,-0.85 0.7,-1.38 0.19,-0.54 0.33,-1.05 0.43,-1.56 0.09,-0.5 0.18,-1.02 0.26,-1.54 0.03,-0.23 0.05,-0.39 0.07,-0.49 0.51,-3.38 0.82,-8.06 0.94,-14.04l-4.85 0 1.13 -4.83 22.54 0 0 25.48 3.18 0 0 4.83 -9.01 0 0 -25.48 -7.14 0c-0.15,3.54 -0.33,6.77 -0.54,9.67 -0.06,0.85 -0.12,1.6 -0.19,2.27 -0.06,0.66 -0.16,1.5 -0.27,2.5 -0.12,1.01 -0.28,1.9 -0.47,2.67 -0.19,0.78 -0.41,1.61 -0.67,2.51 -0.26,0.9 -0.57,1.68 -0.94,2.33 -0.37,0.65 -0.79,1.26 -1.25,1.82 -0.47,0.56 -1.02,0.99 -1.65,1.28 -0.62,0.29 -1.31,0.44 -2.05,0.44l-3.83 0 -0.87 -5.11zm33.27 -6.16c0,-3.9 0.99,-6.87 2.97,-8.93 1.98,-2.06 4.68,-3.09 8.11,-3.09 3.52,0 6.25,1.04 8.19,3.12 1.94,2.08 2.9,5 2.9,8.76 0,3.9 -0.99,6.87 -2.98,8.93 -1.99,2.06 -4.7,3.09 -8.11,3.09 -3.53,0 -6.25,-1.04 -8.18,-3.12 -1.93,-2.08 -2.9,-5 -2.9,-8.76zm5.49 0c0,2.17 0.5,3.89 1.49,5.15 0.99,1.26 2.36,1.89 4.09,1.89 1.71,0 3.08,-0.57 4.09,-1.71 1.01,-1.14 1.52,-2.97 1.52,-5.48 0,-2.17 -0.5,-3.89 -1.5,-5.15 -0.99,-1.26 -2.37,-1.89 -4.11,-1.89 -1.72,0 -3.09,0.57 -4.09,1.71 -1,1.13 -1.5,2.96 -1.5,5.49zm20.7 -6.8l1.05 -4.7 20.82 0 0 8.93 -5.49 0 0 -4.22 -6.27 0 0 13.37 4.66 0 0 4.7 -14.55 0 0 -4.7 4.4 0 0 -13.37 -4.62 0zm25.92 0l1.08 -4.7 8.89 0 0 14.55 9.9 -14.55 4.6 0 0 18.07 3.57 0 0 4.7 -9.06 0 0 -14.25 -9.9 14.25 -4.6 0 0 -18.07 -4.49 0zm31.95 6.83c0,-1.39 0.15,-2.67 0.45,-3.83 0.3,-1.17 0.69,-2.16 1.18,-2.98 0.49,-0.81 1.09,-1.53 1.8,-2.15 0.71,-0.63 1.44,-1.13 2.21,-1.52 0.77,-0.38 1.6,-0.7 2.51,-0.93 0.91,-0.24 1.77,-0.41 2.6,-0.5 0.82,-0.09 1.67,-0.14 2.55,-0.14 2.39,0 4.51,0.37 6.38,1.12l0 8.33 -4.92 0 0 -4.56c-0.73,-0.12 -1.41,-0.19 -2.03,-0.19 -2.26,0 -4.03,0.59 -5.31,1.78 -1.28,1.19 -1.93,3.05 -1.93,5.57 0,1.26 0.2,2.34 0.6,3.27 0.39,0.91 0.94,1.63 1.64,2.15 0.7,0.52 1.47,0.89 2.31,1.13 0.85,0.23 1.79,0.35 2.82,0.35 2.31,0 4.68,-0.43 7.11,-1.29l0 4.69c-1.63,1.02 -4.23,1.52 -7.8,1.52 -1.29,0 -2.51,-0.12 -3.66,-0.37 -1.15,-0.25 -2.26,-0.66 -3.32,-1.24 -1.05,-0.58 -1.96,-1.31 -2.71,-2.21 -0.75,-0.89 -1.35,-2.01 -1.8,-3.37 -0.44,-1.36 -0.67,-2.9 -0.67,-4.62zm25.71 -2.34l0 -9.19 21.91 0 0 9.19 -4.62 0 0 -4.7 -3.57 0 0 13.59 5.23 0 0 4.7 -15.94 0 0 -4.7 5.23 0 0 -13.59 -3.61 0 0 4.7 -4.62 0zm26.27 -4.49l1.08 -4.7 8.89 0 0 14.55 9.9 -14.55 4.6 0 0 18.07 3.57 0 0 4.7 -9.06 0 0 -14.25 -9.9 14.25 -4.6 0 0 -18.07 -4.49 0zm31.17 0l1.08 -4.7 8.89 0 0 9.1 1.83 0 5.97 -9.1 5.91 0 -6.78 10.1 3.74 6.27c0.51,0.87 0.95,1.47 1.31,1.79 0.36,0.32 0.83,0.48 1.39,0.48 0.86,0 1.53,-0.26 2,-0.79 -0.09,-0.55 -0.13,-1.14 -0.13,-1.75 0,-2.61 0.85,-4.53 2.54,-5.76 1.7,-1.23 4.2,-1.84 7.52,-1.84 0.19,0 1.76,0.09 4.7,0.25l0 -0.87c0,-1.37 -0.33,-2.29 -0.99,-2.77 -0.67,-0.47 -1.62,-0.71 -2.86,-0.71 -0.99,0 -2.01,0.12 -3.08,0.36 -1.07,0.23 -2.16,0.48 -3.25,0.74 -1.1,0.25 -1.89,0.43 -2.4,0.51l-1.05 -5.07c0.61,-0.11 1.53,-0.27 2.76,-0.5 1.23,-0.23 2.16,-0.4 2.79,-0.52 0.64,-0.11 1.41,-0.22 2.31,-0.31 0.91,-0.09 1.75,-0.14 2.52,-0.14 1.31,0 2.47,0.13 3.48,0.38 1.01,0.25 1.92,0.67 2.74,1.26 0.81,0.58 1.43,1.39 1.87,2.42 0.44,1.04 0.65,2.29 0.65,3.75l0 15.5 -4.4 0 -0.53 -2.94c-0.91,1.09 -2.08,1.91 -3.52,2.46 -1.44,0.55 -2.9,0.83 -4.4,0.83 -2.43,0 -4.25,-0.6 -5.49,-1.81 -1.23,1.2 -2.82,1.81 -4.75,1.81 -1.31,0 -2.43,-0.26 -3.35,-0.78 -0.91,-0.52 -1.84,-1.5 -2.79,-2.96l-3.7 -6.02 -2.57 0 0 9.41 -5.49 0 0 -18.07 -4.49 0zm30.7 11.11c0,1.95 0.98,2.93 2.95,2.93 1.32,0 2.57,-0.3 3.75,-0.9 1.18,-0.6 2.03,-1.34 2.58,-2.24l0 -2.56c-1.2,-0.2 -2.5,-0.29 -3.93,-0.29 -0.64,0 -1.21,0 -1.68,0.01 -0.48,0 -0.97,0.07 -1.45,0.2 -0.49,0.12 -0.88,0.31 -1.18,0.52 -0.31,0.23 -0.55,0.53 -0.75,0.92 -0.19,0.39 -0.29,0.86 -0.29,1.4z"/>
  </g>
 </g>
</svg>
